<svg width="35" height="28" viewBox="0 0 35 28" fill="none" xmlns="http://www.w3.org/2000/svg">
<path d="M33.75 0.5H1.25C0.558594 0.5 0 1.05859 0 1.75V26.75C0 27.4414 0.558594 28 1.25 28H33.75C34.4414 28 35 27.4414 35 26.75V1.75C35 1.05859 34.4414 0.5 33.75 0.5ZM32.1875 4.82812V25.1875H2.8125V4.82812L1.73438 3.98828L3.26953 2.01563L4.94141 3.31641H30.0625L31.7344 2.01563L33.2695 3.98828L32.1875 4.82812ZM30.0625 3.3125L17.5 13.0781L4.9375 3.3125L3.26563 2.01172L1.73047 3.98438L2.80859 4.82422L16.1523 15.1992C16.5361 15.4973 17.0082 15.6592 17.4941 15.6592C17.9801 15.6592 18.4522 15.4973 18.8359 15.1992L32.1875 4.82812L33.2656 3.98828L31.7305 2.01563L30.0625 3.3125Z" fill="#CA2222"/>
</svg>
