<svg width="27" height="40" viewBox="0 0 27 40" fill="none" xmlns="http://www.w3.org/2000/svg">
<g clip-path="url(#clip0_4_263)">
<path d="M6.66831 40C10.3483 40 13.335 37.0133 13.335 33.3333V26.6667H6.66831C2.98831 26.6667 0.00164795 29.6533 0.00164795 33.3333C0.00164795 37.0133 2.98831 40 6.66831 40Z" fill="#0ACF83"/>
<path d="M0.00164795 20C0.00164795 16.32 2.98831 13.3333 6.66831 13.3333H13.335V26.6667H6.66831C2.98831 26.6667 0.00164795 23.68 0.00164795 20Z" fill="#A259FF"/>
<path d="M0.00164795 6.66667C0.00164795 2.98667 2.98831 0 6.66831 0H13.335V13.3333H6.66831C2.98831 13.3333 0.00164795 10.3467 0.00164795 6.66667Z" fill="#F24E1E"/>
<path d="M13.335 0H20.0017C23.6817 0 26.6684 2.98667 26.6684 6.66667C26.6684 10.3467 23.6817 13.3333 20.0017 13.3333H13.335V0Z" fill="#FF7262"/>
<path d="M26.6684 20C26.6684 23.68 23.6817 26.6667 20.0017 26.6667C16.3217 26.6667 13.335 23.68 13.335 20C13.335 16.32 16.3217 13.3333 20.0017 13.3333C23.6817 13.3333 26.6684 16.32 26.6684 20Z" fill="#1ABCFE"/>
</g>
<defs>
<clipPath id="clip0_4_263">
<rect width="26.67" height="40" fill="white"/>
</clipPath>
</defs>
</svg>
