<svg width="37" height="38" viewBox="0 0 37 38" fill="none" xmlns="http://www.w3.org/2000/svg">
<path fill-rule="evenodd" clip-rule="evenodd" d="M10.775 0.776687C12.73 0.686687 13.3533 0.666687 18.3333 0.666687C23.3133 0.666687 23.9367 0.688354 25.89 0.776687C27.8433 0.86502 29.1767 1.17669 30.3433 1.62835C31.565 2.09002 32.6733 2.81169 33.59 3.74502C34.5233 4.66002 35.2433 5.76669 35.7033 6.99002C36.1567 8.15669 36.4667 9.49002 36.5567 11.44C36.6467 13.3984 36.6667 14.0217 36.6667 19C36.6667 23.98 36.645 24.6034 36.5567 26.5584C36.4683 28.5084 36.1567 29.8417 35.7033 31.0084C35.2433 32.2318 34.5221 33.3404 33.59 34.2567C32.6733 35.19 31.565 35.91 30.3433 36.37C29.1767 36.8234 27.8433 37.1334 25.8933 37.2234C23.9367 37.3134 23.3133 37.3334 18.3333 37.3334C13.3533 37.3334 12.73 37.3117 10.775 37.2234C8.825 37.135 7.49167 36.8234 6.325 36.37C5.10153 35.91 3.99303 35.1888 3.07667 34.2567C2.14397 33.3411 1.42219 32.2332 0.961667 31.01C0.51 29.8433 0.2 28.51 0.11 26.56C0.02 24.6017 0 23.9784 0 19C0 14.02 0.0216666 13.3967 0.11 11.4434C0.198333 9.49002 0.51 8.15669 0.961667 6.99002C1.42287 5.76682 2.1452 4.65888 3.07833 3.74335C3.9934 2.81086 5.10079 2.08909 6.32333 1.62835C7.49 1.17669 8.82333 0.866687 10.7733 0.776687H10.775ZM25.7417 4.07669C23.8083 3.98835 23.2283 3.97002 18.3333 3.97002C13.4383 3.97002 12.8583 3.98835 10.925 4.07669C9.13667 4.15835 8.16667 4.45669 7.52 4.70835C6.665 5.04169 6.05333 5.43669 5.41167 6.07835C4.80341 6.67011 4.3353 7.39049 4.04167 8.18669C3.79 8.83335 3.49167 9.80335 3.41 11.5917C3.32167 13.525 3.30333 14.105 3.30333 19C3.30333 23.895 3.32167 24.475 3.41 26.4083C3.49167 28.1967 3.79 29.1667 4.04167 29.8134C4.335 30.6084 4.80333 31.33 5.41167 31.9217C6.00333 32.53 6.725 32.9984 7.52 33.2917C8.16667 33.5434 9.13667 33.8417 10.925 33.9234C12.8583 34.0117 13.4367 34.03 18.3333 34.03C23.23 34.03 23.8083 34.0117 25.7417 33.9234C27.53 33.8417 28.5 33.5434 29.1467 33.2917C30.0017 32.9584 30.6133 32.5634 31.255 31.9217C31.8633 31.33 32.3317 30.6084 32.625 29.8134C32.8767 29.1667 33.175 28.1967 33.2567 26.4083C33.345 24.475 33.3633 23.895 33.3633 19C33.3633 14.105 33.345 13.525 33.2567 11.5917C33.175 9.80335 32.8767 8.83335 32.625 8.18669C32.2917 7.33169 31.8967 6.72002 31.255 6.07835C30.6632 5.47014 29.9428 5.00204 29.1467 4.70835C28.5 4.45669 27.53 4.15835 25.7417 4.07669ZM15.9917 24.6517C17.2994 25.1961 18.7556 25.2695 20.1115 24.8596C21.4675 24.4496 22.639 23.5815 23.426 22.4038C24.213 21.226 24.5668 19.8115 24.4267 18.4019C24.2867 16.9923 23.6617 15.675 22.6583 14.675C22.0187 14.0358 21.2454 13.5464 20.3939 13.2419C19.5424 12.9375 18.634 12.8256 17.7342 12.9144C16.8343 13.0031 15.9653 13.2903 15.1897 13.7552C14.4141 14.2202 13.7512 14.8513 13.2488 15.6031C12.7464 16.3549 12.417 17.2088 12.2842 18.1033C12.1514 18.9977 12.2186 19.9105 12.4809 20.7759C12.7432 21.6413 13.1941 22.4377 13.8012 23.1079C14.4083 23.7781 15.1564 24.3053 15.9917 24.6517ZM11.67 12.3367C12.545 11.4616 13.5839 10.7675 14.7272 10.294C15.8705 9.82039 17.0958 9.57664 18.3333 9.57664C19.5708 9.57664 20.7962 9.82039 21.9395 10.294C23.0828 10.7675 24.1216 11.4616 24.9967 12.3367C25.8717 13.2117 26.5658 14.2506 27.0394 15.3938C27.513 16.5371 27.7567 17.7625 27.7567 19C27.7567 20.2375 27.513 21.4629 27.0394 22.6062C26.5658 23.7495 25.8717 24.7883 24.9967 25.6634C23.2294 27.4306 20.8326 28.4234 18.3333 28.4234C15.8341 28.4234 13.4372 27.4306 11.67 25.6634C9.90277 23.8961 8.90996 21.4993 8.90996 19C8.90996 16.5008 9.90277 14.1039 11.67 12.3367ZM29.8467 10.98C30.0635 10.7755 30.2371 10.5295 30.3572 10.2566C30.4772 9.9838 30.5413 9.68963 30.5457 9.39157C30.55 9.0935 30.4945 8.7976 30.3825 8.52137C30.2704 8.24514 30.1041 7.9942 29.8933 7.78342C29.6825 7.57263 29.4315 7.40628 29.1553 7.29422C28.8791 7.18215 28.5832 7.12665 28.2851 7.13099C27.987 7.13534 27.6929 7.19944 27.42 7.31951C27.1472 7.43958 26.9012 7.61318 26.6967 7.83002C26.2988 8.25174 26.081 8.81189 26.0895 9.39157C26.098 9.97125 26.332 10.5248 26.7419 10.9348C27.1519 11.3447 27.7054 11.5787 28.2851 11.5872C28.8648 11.5956 29.4249 11.3778 29.8467 10.98Z" fill="url(#paint0_linear_4_313)"/>
<defs>
<linearGradient id="paint0_linear_4_313" x1="18.3333" y1="0.666687" x2="18.3333" y2="37.3334" gradientUnits="userSpaceOnUse">
<stop stop-color="#EEC866"/>
<stop offset="0.328125" stop-color="#DE8B0F" stop-opacity="0.442708"/>
<stop offset="0.713542" stop-color="#662F04" stop-opacity="0.188752"/>
<stop offset="1" stop-color="#F5997C" stop-opacity="0"/>
</linearGradient>
</defs>
</svg>
