<svg width="35" height="35" viewBox="0 0 35 35" fill="none" xmlns="http://www.w3.org/2000/svg">
<path d="M13.918 15.8711C14.2578 15.625 14.4219 15.2188 14.4219 14.6602C14.4336 14.3945 14.3789 14.1328 14.2617 13.8945C14.1562 13.7031 14 13.543 13.8086 13.4297C13.6101 13.3093 13.3897 13.2297 13.1602 13.1953C12.9102 13.1484 12.6562 13.125 12.4062 13.1289H9.66016V16.2422H12.6328C13.1445 16.2461 13.5781 16.1211 13.918 15.8711ZM14.3789 18.6836C13.9961 18.3906 13.4844 18.2461 12.8477 18.2461H9.65234V21.918H12.7852C13.0781 21.918 13.3477 21.8906 13.6094 21.8359C13.857 21.7875 14.093 21.692 14.3047 21.5547C14.5039 21.4258 14.6641 21.25 14.7852 21.0234C14.9023 20.7969 14.9609 20.5078 14.9609 20.1602C14.9609 19.4687 14.7656 18.9805 14.3789 18.6836ZM17.5 0C7.83594 0 0 7.83594 0 17.5C0 27.1641 7.83594 35 17.5 35C27.1641 35 35 27.1641 35 17.5C35 7.83594 27.1641 0 17.5 0ZM20.8789 11.207H26.2852V12.5234H20.8789V11.207ZM17.5 22.0625C17.2471 22.5425 16.8861 22.9571 16.4453 23.2734C15.9844 23.5938 15.4727 23.8281 14.9297 23.9648C14.3616 24.1171 13.7756 24.192 13.1875 24.1875H6.71875V10.8633H13.0078C13.6445 10.8633 14.2227 10.9219 14.75 11.0312C15.2734 11.1406 15.7188 11.3281 16.0938 11.582C16.4648 11.8359 16.7578 12.1758 16.9648 12.5977C17.168 13.0156 17.2734 13.5391 17.2734 14.1602C17.2734 14.832 17.1211 15.3867 16.8164 15.8359C16.5078 16.2852 16.0625 16.6484 15.457 16.9336C16.2812 17.168 16.8867 17.5859 17.2852 18.1719C17.6914 18.7656 17.8906 19.4766 17.8906 20.3125C17.8906 20.9922 17.7617 21.5742 17.5 22.0625ZM28.3906 20H21.4219C21.4219 20.7578 21.6836 21.4844 22.0781 21.875C22.4766 22.2617 23.0469 22.457 23.793 22.457C24.332 22.457 24.7891 22.3203 25.1797 22.0508C25.5664 21.7812 25.8008 21.4961 25.8867 21.1992H28.2227C27.8477 22.3594 27.2773 23.1875 26.5039 23.6875C25.7383 24.1875 24.8008 24.4375 23.7109 24.4375C22.9492 24.4375 22.2656 24.3125 21.6523 24.0742C21.0625 23.8438 20.5312 23.4922 20.0938 23.0391C19.6624 22.5737 19.329 22.0264 19.1133 21.4297C18.875 20.7695 18.7578 20.0742 18.7656 19.375C18.7656 18.6523 18.8867 17.9805 19.1211 17.3555C19.5703 16.1406 20.5039 15.168 21.6953 14.6641C22.332 14.3984 23.0156 14.2656 23.707 14.2734C24.5273 14.2734 25.2383 14.4297 25.8555 14.75C26.4496 15.0559 26.9655 15.4942 27.3633 16.0312C27.7578 16.5664 28.0352 17.1758 28.2109 17.8633C28.3789 18.5391 28.4375 19.25 28.3906 20ZM23.625 16.2656C23.2031 16.2656 22.8477 16.3398 22.5742 16.4844C22.3008 16.6289 22.0742 16.8086 21.9023 17.0156C21.7387 17.2155 21.6177 17.4468 21.5469 17.6953C21.4844 17.9023 21.4414 18.1133 21.4258 18.3281H25.7422C25.6797 17.6523 25.4453 17.1523 25.1328 16.8008C24.8047 16.4531 24.2773 16.2656 23.625 16.2656Z" fill="white"/>
</svg>
