<svg width="35" height="28" viewBox="0 0 35 28" fill="none" xmlns="http://www.w3.org/2000/svg">
<path d="M33.75 0H1.25C0.558594 0 0 0.558594 0 1.25V26.25C0 26.9414 0.558594 27.5 1.25 27.5H33.75C34.4414 27.5 35 26.9414 35 26.25V1.25C35 0.558594 34.4414 0 33.75 0ZM32.1875 4.32812V24.6875H2.8125V4.32812L1.73438 3.48828L3.26953 1.51563L4.94141 2.81641H30.0625L31.7344 1.51563L33.2695 3.48828L32.1875 4.32812ZM30.0625 2.8125L17.5 12.5781L4.9375 2.8125L3.26563 1.51172L1.73047 3.48438L2.80859 4.32422L16.1523 14.6992C16.5361 14.9973 17.0082 15.1592 17.4941 15.1592C17.9801 15.1592 18.4522 14.9973 18.8359 14.6992L32.1875 4.32812L33.2656 3.48828L31.7305 1.51563L30.0625 2.8125Z" fill="white"/>
</svg>
