<svg width="27" height="40" viewBox="0 0 27 40" fill="none" xmlns="http://www.w3.org/2000/svg">
<g clip-path="url(#clip0_4_358)">
<path d="M12.335 33.3334C12.335 36.4611 9.79606 39 6.66834 39C3.54063 39 1.00168 36.4611 1.00168 33.3334C1.00168 30.2056 3.54063 27.6667 6.66834 27.6667H12.335V33.3334Z" stroke="white" stroke-width="2"/>
<path d="M1.00168 20C1.00168 16.8723 3.54063 14.3333 6.66834 14.3333H12.335V25.6667H6.66834C3.54063 25.6667 1.00168 23.1277 1.00168 20Z" stroke="white" stroke-width="2"/>
<path d="M1.00168 6.66667C1.00168 3.53895 3.54063 1 6.66834 1H12.335V12.3333H6.66834C3.54063 12.3333 1.00168 9.79438 1.00168 6.66667Z" stroke="white" stroke-width="2"/>
<path d="M14.335 1H20.0017C23.1294 1 25.6683 3.53895 25.6683 6.66667C25.6683 9.79438 23.1294 12.3333 20.0017 12.3333H14.335V1Z" stroke="white" stroke-width="2"/>
<path d="M25.6683 20C25.6683 23.1277 23.1294 25.6667 20.0017 25.6667C16.8739 25.6667 14.335 23.1277 14.335 20C14.335 16.8723 16.8739 14.3333 20.0017 14.3333C23.1294 14.3333 25.6683 16.8723 25.6683 20Z" stroke="white" stroke-width="2"/>
</g>
<defs>
<clipPath id="clip0_4_358">
<rect width="26.67" height="40" fill="white"/>
</clipPath>
</defs>
</svg>
